<?xml version="1.0" encoding="UTF-8"?>
<svg width="32px" height="32px" viewBox="0 0 32 32" version="1.1" xmlns="http://www.w3.org/2000/svg" xmlns:xlink="http://www.w3.org/1999/xlink">
    <title>chip</title>
    <g id="Page-1" stroke="none" stroke-width="1" fill="none" fill-rule="evenodd">
        <g id="chip">
            <path d="M29,28.36 L3,28.36 C1.699,28.36 0.64,27.301 0.64,26 L0.64,6 C0.64,4.699 1.699,3.64 3,3.64 L29,3.64 C30.302,3.64 31.36,4.699 31.36,6 L31.36,26 C31.36,27.302 30.302,28.36 29,28.36 Z M22.36,27.64 L29,27.64 C29.904,27.64 30.64,26.905 30.64,26 L30.64,22.36 L22.36,22.36 L22.36,27.64 Z M10.36,27.64 L21.64,27.64 L21.64,10 C21.64,9.801 21.801,9.64 22,9.64 L30.64,9.64 L30.64,6 C30.64,5.096 29.905,4.36 29,4.36 L10.36,4.36 L10.36,27.64 Z M1.36,22.36 L1.36,26 C1.36,26.904 2.096,27.64 3,27.64 L9.64,27.64 L9.64,22.36 L1.36,22.36 Z M22.36,21.64 L30.639,21.64 L30.639,16.36 L22.36,16.36 L22.36,21.64 Z M1.36,21.64 L9.64,21.64 L9.64,16.36 L1.36,16.36 L1.36,21.64 Z M22.36,15.64 L30.639,15.64 L30.639,10.36 L22.36,10.36 L22.36,15.64 Z M1.36,15.64 L9.64,15.64 L9.64,10.36 L1.36,10.36 L1.36,15.64 Z M1.36,9.64 L9.64,9.64 L9.64,4.36 L3,4.36 C2.096,4.36 1.36,5.096 1.36,6 L1.36,9.64 Z" id="chip--credit_1_" fill="#FFFFFF" fill-rule="nonzero"></path>
            <rect id="_Transparent_Rectangle" x="0" y="0" width="32" height="32"></rect>
        </g>
    </g>
</svg>