<?xml version="1.0" encoding="UTF-8"?>
<svg width="484px" height="568px" viewBox="0 0 484 568" version="1.1" xmlns="http://www.w3.org/2000/svg" xmlns:xlink="http://www.w3.org/1999/xlink">
    <title>contactless</title>
    <g id="Page-1" stroke="none" stroke-width="1" fill="none" fill-rule="evenodd" stroke-linecap="round" stroke-linejoin="round">
        <g id="contactless" transform="translate(34.000000, 34.000000)" stroke="#FFFFFF" stroke-width="66.6666667">
            <path d="M360,499.998667 C396.666667,423.332 416.666667,339.998667 416.666667,249.998667 C416.666667,160 396.666667,73.3333333 360,-2.84217094e-14 M240,443.335333 C266.666667,383.335333 283.333333,316.668667 283.333333,250.002 C283.333333,183.335333 266.666667,113.336667 240,53.3366667 M120.003333,386.662 C140.003333,343.328667 150.003333,296.662 150.003333,249.995333 C150.003333,203.328667 140.003333,153.330333 120.003333,113.330333 M0,326.668667 C10,303.335333 16.6666667,276.668667 16.6666667,250.002 C16.6666667,223.335333 10,193.335333 0,170.003333" id="Shape"></path>
        </g>
    </g>
</svg>