<?xml version="1.0" encoding="UTF-8"?>
<svg width="2001px" height="1237px" viewBox="0 0 2001 1237" version="1.1" xmlns="http://www.w3.org/2000/svg" xmlns:xlink="http://www.w3.org/1999/xlink">
    <title>mastercard</title>
    <g id="Page-1" stroke="none" stroke-width="1" fill="none" fill-rule="evenodd">
        <g id="mastercard" transform="translate(0.000000, -0.000000)" fill-rule="nonzero">
            <polygon id="Path" fill="#FF5F00" points="1270.57 1104.15067 729.71 1104.15067 729.71 132.150672 1270.58 132.150672"></polygon>
            <path d="M764,618.170672 C764,421.000672 856.32,245.360672 1000.09,132.170672 C891.261082,46.3653833 756.668724,-0.204087071 618.09,0 C276.72,0 0,276.760672 0,618.170672 C0,959.580672 276.72,1236.34136 618.09,1236.34136 C756.672151,1236.54768 891.268392,1189.97809 1000.09,1104.17067 C856.34,991.000672 764,815.350672 764,618.170672" id="Path" fill="#EB001B"></path>
            <path d="M2000.25,618.170672 C2000.25,959.580672 1723.53,1236.34134 1382.16,1236.34134 C1243.5632,1236.54407 1108.9523,1189.9755 1000.11,1104.17067 C1143.91,990.980672 1236.23,815.350672 1236.23,618.170672 C1236.23,420.990672 1143.91,245.360672 1000.11,132.170672 C1108.9496,46.3679756 1243.55663,-0.200474574 1382.15,2.3451767e-05 C1723.52,2.3451767e-05 2000.25,276.760672 2000.25,618.170672" id="Path" fill="#F79E1B"></path>
        </g>
    </g>
</svg>