<?xml version="1.0" encoding="UTF-8"?>
<svg width="2501px" height="1276px" viewBox="0 0 2501 1276" version="1.1" xmlns="http://www.w3.org/2000/svg" xmlns:xlink="http://www.w3.org/1999/xlink">
    <title>visa</title>
    <g id="Page-1" stroke="none" stroke-width="1" fill="none" fill-rule="evenodd">
        <g id="visa" transform="translate(0.703896, 0.000000)">
            <g id="Group" transform="translate(0.296104, 233.000000)" fill="#2566AF" fill-rule="nonzero">
                <path d="M1083.77347,797.482285 L879.778672,797.482285 L1007.2728,13.9997416 L1211.28856,13.9997416 L1083.77347,797.482285 Z M708.165661,13.9997416 L513.686284,552.885004 L490.673206,436.842236 L490.694165,436.884151 L422.053152,84.5433496 C422.053152,84.5433496 413.753353,13.9997416 325.285044,13.9997416 L3.77263581,13.9997416 L0,27.2659638 C0,27.2659638 98.3190812,47.720676 213.384474,116.818203 L390.61452,797.503243 L603.16063,797.503243 L927.712106,13.9997416 L708.165661,13.9997416 Z M2312.68863,797.482285 L2500,797.482285 L2336.68679,13.9787839 L2172.70288,13.9787839 C2096.9777,13.9787839 2078.5337,72.3669277 2078.5337,72.3669277 L1774.29158,797.482285 L1986.94249,797.482285 L2029.46848,681.104194 L2288.79527,681.104194 L2312.68863,797.482285 Z M2088.2168,520.337701 L2195.40158,227.13952 L2255.70087,520.337701 L2088.2168,520.337701 Z M1790.24145,202.409437 L1819.35362,34.1610461 C1819.35362,34.1610461 1729.52297,0 1635.87777,0 C1534.64537,0 1294.24463,44.2416983 1294.24463,259.372458 C1294.24463,461.781895 1576.39588,464.296819 1576.39588,570.615216 C1576.39588,676.933612 1323.31489,657.883066 1239.79292,590.839393 L1209.46512,766.758302 C1209.46512,766.758302 1300.55332,811 1439.72166,811 C1578.93192,811 1788.94199,738.92648 1788.94199,542.762436 C1788.94199,339.053622 1504.25469,320.086906 1504.25469,231.519679 C1504.27565,142.931493 1702.94685,154.311523 1790.24145,202.409437 L1790.24145,202.409437 Z" id="Shape"></path>
            </g>
            <path d="M490.661602,670.203208 L422.025144,317.862407 C422.025144,317.862407 413.725896,247.318799 325.263457,247.318799 L3.77238546,247.318799 L0,260.585021 C0,260.585021 154.5211,292.608382 302.733933,412.591197 C444.44988,527.271715 490.661602,670.203208 490.661602,670.203208 Z" id="Path" fill="#E6A540" fill-rule="nonzero"></path>
            <polygon id="Path" points="0.296103954 0 2500.2961 0 2500.2961 1276 0.296103954 1276"></polygon>
        </g>
    </g>
</svg>